<svg width="28" height="28" viewBox="0 0 28 28" fill="none" xmlns="http://www.w3.org/2000/svg">
<path d="M18.3776 16.7663C19.3249 16.7663 20.1585 16.2545 20.588 15.4806L25.1097 7.37984C25.2162 7.19065 25.2708 6.97726 25.2682 6.76081C25.2655 6.54435 25.2058 6.33232 25.0948 6.14571C24.9838 5.95909 24.8253 5.80435 24.6353 5.69681C24.4452 5.58926 24.2299 5.53263 24.0109 5.53252H5.31751L4.13023 3.03613H0V5.53252H2.52613L7.07318 15.0063L5.36803 18.0519C4.44599 19.7245 5.65854 21.759 7.5784 21.759H22.7351V19.2626H7.5784L8.96778 16.7663H18.3776ZM6.51742 8.0289H21.8636L18.3776 14.2699H9.5109L6.51742 8.0289ZM7.5784 23.0072C6.18903 23.0072 5.0649 24.1306 5.0649 25.5036C5.0649 26.8766 6.18903 28 7.5784 28C8.96778 28 10.1045 26.8766 10.1045 25.5036C10.1045 24.1306 8.96778 23.0072 7.5784 23.0072ZM20.2091 23.0072C18.8197 23.0072 17.6955 24.1306 17.6955 25.5036C17.6955 26.8766 18.8197 28 20.2091 28C21.5984 28 22.7351 26.8766 22.7351 25.5036C22.7351 24.1306 21.5984 23.0072 20.2091 23.0072Z" fill="url(#paint0_linear)"/>
<path d="M20.8299 14.1687C24.7902 14.1687 28.0006 10.9969 28.0006 7.08434C28.0006 3.17177 24.7902 0 20.8299 0C16.8696 0 13.6592 3.17177 13.6592 7.08434C13.6592 10.9969 16.8696 14.1687 20.8299 14.1687Z" fill="url(#paint1_linear)"/>
<defs>
<linearGradient id="paint0_linear" x1="-27.6836" y1="-41.4071" x2="39.9234" y2="43.6686" gradientUnits="userSpaceOnUse">
<stop offset="0.177083" stop-color="#32FFF3"/>
<stop offset="1" stop-color="#374CB8"/>
</linearGradient>
<linearGradient id="paint1_linear" x1="-2.05316" y1="-25.2245" x2="36.3184" y2="23.0617" gradientUnits="userSpaceOnUse">
<stop offset="0.177083" stop-color="#32FFF3"/>
<stop offset="1" stop-color="#374CB8"/>
</linearGradient>
</defs>
</svg>
