<svg width="20" height="20" viewBox="0 0 20 20" fill="none" xmlns="http://www.w3.org/2000/svg">
<path d="M14.546 11C15.2958 11 15.9556 10.59 16.2955 9.97L19.8745 3.48C19.9588 3.32843 20.002 3.15747 19.9999 2.98406C19.9978 2.81064 19.9505 2.64077 19.8627 2.49126C19.7748 2.34175 19.6494 2.21778 19.499 2.13162C19.3485 2.04546 19.1781 2.00009 19.0048 2H4.20884L3.2691 0H0V2H1.99945L5.59846 9.59L4.24883 12.03C3.51903 13.37 4.47877 15 5.99835 15H17.995V13H5.99835L7.09805 11H14.546ZM5.15858 4H17.3052L14.546 9H7.52793L5.15858 4ZM5.99835 16C4.89865 16 4.0089 16.9 4.0089 18C4.0089 19.1 4.89865 20 5.99835 20C7.09805 20 7.9978 19.1 7.9978 18C7.9978 16.9 7.09805 16 5.99835 16ZM15.9956 16C14.8959 16 14.0061 16.9 14.0061 18C14.0061 19.1 14.8959 20 15.9956 20C17.0953 20 17.995 19.1 17.995 18C17.995 16.9 17.0953 16 15.9956 16Z" fill="black"/>
</svg>
