<svg width="15" height="15" viewBox="0 0 15 15" fill="none" xmlns="http://www.w3.org/2000/svg">
<path fill-rule="evenodd" clip-rule="evenodd" d="M12.0125 0H1.46659V0.00161096C1.46398 0.00161096 1.46147 0.00121675 1.45894 0.000818339C1.45635 0.000411358 1.45374 0 1.45095 0C1.14341 0.000218698 0.848153 0.120712 0.628275 0.335731C0.408397 0.550749 0.281336 0.843238 0.274246 1.15069H0.271484V13.5782H0.274476C0.281721 13.8803 0.404965 14.168 0.618651 14.3817C0.832336 14.5954 1.12007 14.7186 1.42218 14.7259V14.7289H13.8497V14.7259C14.1518 14.7187 14.4396 14.5955 14.6533 14.3818C14.867 14.1681 14.9902 13.8803 14.9974 13.5782H15.0004V5.26672V1.15069C14.9512 0.825381 14.9204 0.634746 14.668 0.335731C14.4342 0.137416 14.2685 0.0673384 14 0H12.0125ZM12.704 12.4325V7.56305V2.29632H9.71591H2.56781V12.4325H12.704Z" fill="url(#paint0_linear)"/>
<defs>
<linearGradient id="paint0_linear" x1="-15.8653" y1="-26.2219" x2="24.1299" y2="23.5012" gradientUnits="userSpaceOnUse">
<stop offset="0.177083" stop-color="#32FFF3"/>
<stop offset="1" stop-color="#374CB8"/>
</linearGradient>
</defs>
</svg>
