<svg width="15" height="15" viewBox="0 0 15 15" fill="none" xmlns="http://www.w3.org/2000/svg">
<path d="M12.4326 7.83404V12.7035H2.29632V2.56732H9.44443L11.741 0.270996H1.19511V0.272607C1.18982 0.272607 1.18498 0.270996 1.17946 0.270996C0.871923 0.271215 0.576668 0.391708 0.35679 0.606727C0.136912 0.821745 0.00985193 1.11423 0.00276146 1.42169H0V13.8492H0.00299191C0.0102368 14.1513 0.133481 14.439 0.347166 14.6527C0.560852 14.8664 0.848583 14.9896 1.15069 14.9969V14.9999H13.5782V14.9969C13.8803 14.9897 14.1681 14.8665 14.3818 14.6528C14.5955 14.4391 14.7187 14.1513 14.7259 13.8492H14.7289V5.53772L12.4326 7.83404Z" fill="url(#paint0_linear)"/>
<defs>
<linearGradient id="paint0_linear" x1="-16.1368" y1="-25.9509" x2="23.8585" y2="23.7722" gradientUnits="userSpaceOnUse">
<stop offset="0.177083" stop-color="#32FFF3"/>
<stop offset="1" stop-color="#374CB8"/>
</linearGradient>
</defs>
</svg>
