<svg width="18" height="16" viewBox="0 0 18 16" fill="none" xmlns="http://www.w3.org/2000/svg">
<path d="M17.0396 2.09289L15.0558 0.108636C14.9862 0.0390711 14.8917 0 14.7932 0C14.6948 0 14.6003 0.0390711 14.5307 0.108636L7.36207 7.27723L5.96513 5.88074C5.89548 5.81112 5.80102 5.77201 5.70254 5.77201C5.60406 5.77201 5.50961 5.81112 5.43995 5.88074L3.4557 7.865C3.42114 7.89944 3.39372 7.94037 3.37502 7.98543C3.35631 8.03049 3.34668 8.0788 3.34668 8.12759C3.34668 8.17638 3.35631 8.22469 3.37502 8.26975C3.39372 8.31481 3.42114 8.35573 3.4557 8.39018L7.08775 12.0213C7.15725 12.0908 7.2516 12.1302 7.35033 12.1302C7.35471 12.1302 7.35885 12.1279 7.36322 12.1279C7.3669 12.1279 7.37082 12.1299 7.37473 12.1299C7.42351 12.13 7.47182 12.1204 7.51688 12.1017C7.56194 12.083 7.60287 12.0556 7.63732 12.0211L17.0396 2.6183C17.1846 2.47285 17.1846 2.23788 17.0396 2.09289Z" fill="url(#paint0_linear)"/>
<path d="M12.4326 8.83404V13.7035H2.29632V3.56732H9.44443L11.741 1.271H1.19511V1.27261C1.18982 1.27261 1.18498 1.271 1.17946 1.271C0.871923 1.27121 0.576668 1.39171 0.35679 1.60673C0.136912 1.82175 0.00985193 2.11423 0.00276146 2.42169H0V14.8492H0.00299191C0.0102368 15.1513 0.133481 15.439 0.347166 15.6527C0.560852 15.8664 0.848583 15.9896 1.15069 15.9969V15.9999H13.5782V15.9969C13.8803 15.9897 14.1681 15.8665 14.3818 15.6528C14.5955 15.4391 14.7187 15.1513 14.7259 14.8492H14.7289V6.53772L12.4326 8.83404Z" fill="url(#paint1_linear)"/>
<defs>
<linearGradient id="paint0_linear" x1="-11.7743" y1="-21.5954" x2="20.0169" y2="23.3746" gradientUnits="userSpaceOnUse">
<stop offset="0.177083" stop-color="#CAFF32"/>
<stop offset="1" stop-color="#37B844"/>
</linearGradient>
<linearGradient id="paint1_linear" x1="-16.1368" y1="-24.9509" x2="23.8585" y2="24.7722" gradientUnits="userSpaceOnUse">
<stop offset="0.177083" stop-color="#32FFF3"/>
<stop offset="1" stop-color="#374CB8"/>
</linearGradient>
</defs>
</svg>
