<svg width="46" height="46" viewBox="0 0 46 46" fill="none" xmlns="http://www.w3.org/2000/svg">
<path d="M26.8337 15.3334H8.94477C8.60588 15.3334 8.28087 15.1988 8.04124 14.9592C7.80162 14.7195 7.66699 14.3945 7.66699 14.0556V8.94453C7.66699 8.60564 7.80162 8.28063 8.04124 8.041C8.28087 7.80137 8.60588 7.66675 8.94477 7.66675H26.8337C27.1725 7.66675 27.4976 7.80137 27.7372 8.041C27.9768 8.28063 28.1114 8.60564 28.1114 8.94453V14.0556C28.1114 14.3945 27.9768 14.7195 27.7372 14.9592C27.4976 15.1988 27.1725 15.3334 26.8337 15.3334ZM10.2225 12.7779H25.5559V10.1456H10.2225V12.7779Z" fill="black"/>
<path d="M26.8337 17.9912H8.94477C8.60588 17.9912 8.28087 18.1258 8.04124 18.3655C7.80162 18.6051 7.66699 18.9301 7.66699 19.269V24.2779C7.66699 24.6168 7.80162 24.9418 8.04124 25.1814C8.28087 25.421 8.60588 25.5557 8.94477 25.5557H23.4603L28.1114 20.8279V19.269C28.1114 18.9301 27.9768 18.6051 27.7372 18.3655C27.4976 18.1258 27.1725 17.9912 26.8337 17.9912ZM25.5559 23.0001H10.2225V20.4445H25.5559V23.0001Z" fill="black"/>
<path d="M14.1323 40.2629V40.1862L14.5412 38.4101H5.11122V5.11122H30.6668V18.2084L33.2223 15.7934V3.83344C33.2223 3.49455 33.0877 3.16955 32.8481 2.92992C32.6084 2.69029 32.2834 2.55566 31.9446 2.55566H3.83344C3.49455 2.55566 3.16955 2.69029 2.92992 2.92992C2.69029 3.16955 2.55566 3.49455 2.55566 3.83344V39.6112C2.55566 39.9501 2.69029 40.2751 2.92992 40.5147C3.16955 40.7544 3.49455 40.889 3.83344 40.889H14.0557C14.0662 40.6787 14.0918 40.4695 14.1323 40.2629Z" fill="black"/>
<path d="M28.1109 24.4949L27.1143 25.5043C27.3615 25.4533 27.5882 25.3303 27.7655 25.1506C27.9429 24.9709 28.0631 24.7428 28.1109 24.4949Z" fill="black"/>
<path d="M7.66699 34.4233C7.66699 34.7622 7.80162 35.0872 8.04124 35.3268C8.28087 35.5665 8.60588 35.7011 8.94477 35.7011H15.1292L15.5125 34.04L15.6787 33.3372V33.2733H10.2225V30.6666H18.3237L20.8792 28.1111H8.94477C8.60588 28.1111 8.28087 28.2457 8.04124 28.4853C7.80162 28.725 7.66699 29.05 7.66699 29.3889V34.4233Z" fill="black"/>
<path d="M42.7925 21.3005L38.4864 16.9944C38.2953 16.8028 38.0682 16.6508 37.8183 16.547C37.5683 16.4433 37.3003 16.3899 37.0297 16.3899C36.7591 16.3899 36.4911 16.4433 36.2411 16.547C35.9912 16.6508 35.7641 16.8028 35.573 16.9944L18.0547 34.615L16.6108 40.7611C16.5567 41.0262 16.5555 41.2995 16.6072 41.5651C16.6589 41.8307 16.7625 42.0835 16.9121 42.309C17.0616 42.5346 17.2542 42.7284 17.4788 42.8793C17.7034 43.0303 17.9555 43.1355 18.2208 43.1889C18.3525 43.2021 18.4852 43.2021 18.6169 43.1889C18.7735 43.2144 18.9331 43.2144 19.0897 43.1889L25.2869 41.8217L42.7925 24.2778C42.9837 24.0878 43.1355 23.8618 43.239 23.6129C43.3426 23.364 43.3959 23.0971 43.3959 22.8275C43.3959 22.5579 43.3426 22.291 43.239 22.0421C43.1355 21.7932 42.9837 21.5672 42.7925 21.3772V21.3005ZM23.9836 39.4961L19.3069 40.5311L20.4441 35.8928L33.5797 22.6167L37.183 26.22L23.9836 39.4961ZM38.6269 24.7761L35.0236 21.1728L37.0552 19.1667L40.6841 22.7955L38.6269 24.7761Z" fill="black"/>
</svg>
