<svg id="Capa_1" enable-background="new 0 0 512 512" height="512" viewBox="0 0 512 512" width="512" xmlns="http://www.w3.org/2000/svg"><g id="XMLID_1326_"><path id="XMLID_1117_" d="m420 108-82 112.919h-164l-82-112.919z" fill="#ccf5fc"/><g id="XMLID_1076_"><path id="XMLID_1116_" d="m502 220.919-82-112.919-82 112.919-82-112.919-82 112.919-82-112.919-82 112.919z" fill="#99ebfa"/><path id="XMLID_1109_" d="m10 220.919 246 246 246-246z" fill="#98eaf9"/><path id="XMLID_1115_" d="m174 220.919 82 246 82-246z" fill="#ccf5fc"/></g><g id="XMLID_133_"><path id="XMLID_158_" d="m510.092 215.043-82-112.919c-1.882-2.591-4.89-4.124-8.092-4.124h-328c-3.202 0-6.21 1.533-8.091 4.124l-82 112.919c-2.89 3.979-2.457 9.47 1.02 12.947l246 246c1.876 1.875 4.419 2.929 7.071 2.929s5.195-1.054 7.071-2.929l91.193-91.194c3.905-3.905 3.905-10.237 0-14.142-3.906-3.905-10.236-3.904-14.143 0l-61.241 61.241 66.326-198.976h132.651l-74.109 74.109c-3.905 3.905-3.905 10.237 0 14.142 3.906 3.905 10.236 3.904 14.143 0l91.18-91.18c3.478-3.478 3.911-8.967 1.021-12.947zm-27.712-4.124h-124.759l62.38-85.9zm-390.38-85.9 62.38 85.9h-124.759zm183.621-7.019h124.759l-62.38 85.9zm42.759 92.919h-124.76l62.38-85.9zm-144.38-7.018-62.379-85.901h124.759zm-7.207 27.018 66.325 198.975-198.976-198.975zm21.081 0h136.252l-68.126 204.377z"/><path id="XMLID_165_" d="m50 33.334c5.523 0 10-4.477 10-10v-13.334c0-5.523-4.477-10-10-10s-10 4.477-10 10v13.333c0 5.524 4.477 10.001 10 10.001z"/><path id="XMLID_166_" d="m50 100c5.523 0 10-4.477 10-10v-13.333c0-5.523-4.477-10-10-10s-10 4.477-10 10v13.333c0 5.523 4.477 10 10 10z"/><path id="XMLID_858_" d="m76.667 60h13.333c5.523 0 10-4.477 10-10s-4.477-10-10-10h-13.333c-5.523 0-10 4.477-10 10s4.477 10 10 10z"/><path id="XMLID_866_" d="m10 60h13.333c5.523 0 10-4.477 10-10s-4.477-10-10-10h-13.333c-5.523 0-10 4.477-10 10s4.477 10 10 10z"/><path id="XMLID_867_" d="m448 412c-5.522 0-10 4.477-10 10v13.333c0 5.523 4.478 10 10 10 5.523 0 10-4.477 10-10v-13.333c0-5.523-4.477-10-10-10z"/><path id="XMLID_868_" d="m448 478.667c-5.522 0-10 4.477-10 10v13.333c0 5.523 4.478 10 10 10 5.523 0 10-4.477 10-10v-13.333c0-5.523-4.477-10-10-10z"/><path id="XMLID_946_" d="m488 452h-13.333c-5.523 0-10 4.477-10 10s4.477 10 10 10h13.333c5.523 0 10-4.477 10-10s-4.477-10-10-10z"/><path id="XMLID_947_" d="m421.333 452h-13.333c-5.522 0-10 4.477-10 10s4.478 10 10 10h13.333c5.522 0 10-4.477 10-10s-4.477-10-10-10z"/><path id="XMLID_948_" d="m379 333.92c-2.63 0-5.21 1.07-7.07 2.93s-2.93 4.44-2.93 7.07 1.069 5.21 2.93 7.07c1.86 1.86 4.44 2.93 7.07 2.93s5.21-1.07 7.069-2.93c1.86-1.86 2.931-4.44 2.931-7.07s-1.07-5.21-2.931-7.07c-1.859-1.86-4.439-2.93-7.069-2.93z"/></g></g></svg>