<svg width="28" height="25" viewBox="0 0 28 25" fill="none" xmlns="http://www.w3.org/2000/svg">
<path d="M19.7548 0C17.3842 0 15.109 1.10354 13.624 2.84741C12.139 1.10354 9.86376 0 7.49319 0C3.297 0 0 3.297 0 7.49319C0 12.6431 4.63215 16.8392 11.6485 23.2153L13.624 25L15.5995 23.2016C22.6158 16.8392 27.248 12.6431 27.248 7.49319C27.248 3.297 23.951 0 19.7548 0ZM13.7602 21.1853L13.624 21.3215L13.4877 21.1853C7.00272 15.3133 2.7248 11.4305 2.7248 7.49319C2.7248 4.76839 4.76839 2.7248 7.49319 2.7248C9.59128 2.7248 11.6349 4.07357 12.3569 5.94005H14.9046C15.6131 4.07357 17.6567 2.7248 19.7548 2.7248C22.4796 2.7248 24.5232 4.76839 24.5232 7.49319C24.5232 11.4305 20.2452 15.3133 13.7602 21.1853Z" fill="url(#paint0_linear)"/>
<defs>
<linearGradient id="paint0_linear" x1="-29.8525" y1="-44.5076" x2="36.5598" y2="45.482" gradientUnits="userSpaceOnUse">
<stop offset="0.177083" stop-color="#32FFF3"/>
<stop offset="1" stop-color="#374CB8"/>
</linearGradient>
</defs>
</svg>
