<svg width="24" height="24" viewBox="0 0 24 24" fill="none" xmlns="http://www.w3.org/2000/svg">
<path d="M2.99979 13H3.99979V20C3.99979 21.103 4.89679 22 5.99979 22H17.9998C19.1028 22 19.9998 21.103 19.9998 20V13H20.9998C21.1975 13 21.3908 12.9413 21.5552 12.8314C21.7197 12.7215 21.8478 12.5654 21.9235 12.3827C21.9991 12.2 22.0189 11.9989 21.9804 11.805C21.9418 11.611 21.8466 11.4329 21.7068 11.293L12.7068 2.29302C12.614 2.20007 12.5038 2.12633 12.3825 2.07602C12.2612 2.02571 12.1311 1.99982 11.9998 1.99982C11.8685 1.99982 11.7384 2.02571 11.6171 2.07602C11.4958 2.12633 11.3856 2.20007 11.2928 2.29302L2.29279 11.293C2.15298 11.4329 2.05777 11.611 2.0192 11.805C1.98064 11.9989 2.00044 12.2 2.07611 12.3827C2.15178 12.5654 2.27992 12.7215 2.44433 12.8314C2.60874 12.9413 2.80204 13 2.99979 13ZM11.9998 4.41402L17.9998 10.414V15L18.0008 20H5.99979V10.414L11.9998 4.41402Z" fill="black"/>
<path d="M11.9998 18C15.7028 18 16.9008 14.461 16.9498 14.311L15.0498 13.69C15.0418 13.713 14.2688 16 11.9998 16C9.7618 16 8.9798 13.779 8.9488 13.684L7.0498 14.311C7.0988 14.461 8.2968 18 11.9998 18Z" fill="black"/>
</svg>
