<svg width="25" height="25" viewBox="0 0 25 25" fill="none" xmlns="http://www.w3.org/2000/svg">
<path d="M1.24976 13.7501H2.49979V22.5C2.49979 23.8788 3.62106 25 4.99984 25H20.0002C21.3789 25 22.5002 23.8788 22.5002 22.5V13.7501H23.7502C23.9974 13.7501 24.2391 13.6767 24.4446 13.5394C24.6501 13.402 24.8103 13.2068 24.9049 12.9784C24.9995 12.7501 25.0242 12.4988 24.976 12.2563C24.9278 12.0139 24.8088 11.7912 24.634 11.6164L13.3838 0.366498C13.2678 0.250317 13.13 0.158145 12.9784 0.0952576C12.8267 0.0323698 12.6642 0 12.5 0C12.3358 0 12.1733 0.0323698 12.0216 0.0952576C11.87 0.158145 11.7322 0.250317 11.6162 0.366498L0.365991 11.6164C0.191226 11.7912 0.0722153 12.0139 0.0240049 12.2563C-0.0242056 12.4988 0.0005487 12.7501 0.0951383 12.9784C0.189728 13.2068 0.349906 13.402 0.555422 13.5394C0.760939 13.6767 1.00257 13.7501 1.24976 13.7501ZM12.5 3.01772L20.0002 10.5176V16.2501L20.0014 22.5H4.99984V10.5176L12.5 3.01772Z" fill="url(#paint0_linear)"/>
<path d="M12.5001 19.9999C17.129 19.9999 18.6265 15.5762 18.6878 15.3887L16.3127 14.6125C16.3027 14.6412 15.3364 17.5 12.5001 17.5C9.70257 17.5 8.72505 14.7237 8.6863 14.605L6.3125 15.3887C6.37375 15.5762 7.87128 19.9999 12.5001 19.9999Z" fill="url(#paint1_linear)"/>
<defs>
<linearGradient id="paint0_linear" x1="-27.3897" y1="-44.5076" x2="40.4961" y2="39.8897" gradientUnits="userSpaceOnUse">
<stop offset="0.177083" stop-color="white"/>
<stop offset="1" stop-color="white"/>
</linearGradient>
<linearGradient id="paint1_linear" x1="-7.2457" y1="5.00034" x2="2.121" y2="31.7122" gradientUnits="userSpaceOnUse">
<stop offset="0.177083" stop-color="white"/>
<stop offset="1" stop-color="white"/>
</linearGradient>
</defs>
</svg>
