<svg width="34" height="34" viewBox="0 0 34 34" fill="none" xmlns="http://www.w3.org/2000/svg">
<path d="M32.87 32.29L30 29.38V32H2.00002V27.85H4.00002V26.25H2.00002V19.6H4.00002V18H2.00002V11.6H4.00002V9.99996H2.00002V4.40996L17.94 20.26V17.44L1.71002 1.28996C1.57015 1.14893 1.39145 1.05275 1.1967 1.01368C1.00195 0.974607 0.799979 0.994419 0.616535 1.07059C0.433092 1.14675 0.276486 1.27582 0.166685 1.44134C0.0568835 1.60686 -0.00113818 1.80133 1.6917e-05 1.99996V33C1.6917e-05 33.2652 0.105374 33.5195 0.29291 33.7071C0.480446 33.8946 0.7348 34 1.00002 34H32.16C32.3586 34.0011 32.5531 33.9431 32.7186 33.8333C32.8841 33.7235 33.0132 33.5669 33.0894 33.3834C33.1656 33.2 33.1854 32.998 33.1463 32.8033C33.1072 32.6085 33.011 32.4298 32.87 32.29Z" fill="black"/>
</svg>
