<svg width="38" height="38" viewBox="0 0 38 38" fill="none" xmlns="http://www.w3.org/2000/svg">
<path d="M9.5 18.3772V28.5H19.6228L17.5117 26.3889H11.6111V20.4883L9.5 18.3772Z" fill="url(#paint0_linear)"/>
<path d="M36.8075 34.0838L33.778 31.0121V33.7777H4.22246V29.3971H6.33357V27.7082H4.22246V20.6888H6.33357V18.9999H4.22246V12.2443H6.33357V10.5555H4.22246V4.6549L21.048 21.3855V18.4088L3.91635 1.36157C3.7687 1.2127 3.58008 1.11118 3.37451 1.06994C3.16894 1.0287 2.95575 1.04961 2.76212 1.13001C2.56848 1.21041 2.40317 1.34665 2.28727 1.52136C2.17137 1.69608 2.11013 1.90135 2.11135 2.11101V34.8332C2.11135 35.1132 2.22256 35.3817 2.42051 35.5796C2.61847 35.7776 2.88695 35.8888 3.1669 35.8888H36.058C36.2677 35.89 36.4729 35.8288 36.6477 35.7129C36.8224 35.597 36.9586 35.4317 37.039 35.238C37.1194 35.0444 37.1403 34.8312 37.0991 34.6256C37.0578 34.4201 36.9563 34.2314 36.8075 34.0838Z" fill="url(#paint1_linear)"/>
<path d="M25.3338 31.6667H29.556C30.1159 31.6667 30.6529 31.4443 31.0488 31.0484C31.4447 30.6525 31.6671 30.1155 31.6671 29.5556V9.18336L29.2393 4.71836C29.0516 4.39306 28.7804 4.12374 28.4538 3.93819C28.1273 3.75264 27.7571 3.65757 27.3815 3.6628C26.9975 3.66585 26.6215 3.77362 26.2942 3.9745C25.9668 4.17538 25.7004 4.46176 25.5238 4.8028L23.2227 9.20447V29.5556C23.2227 30.1155 23.4451 30.6525 23.841 31.0484C24.2369 31.4443 24.7739 31.6667 25.3338 31.6667ZM25.3338 9.71114L27.3815 5.73169L29.556 9.72169V25.3334H25.3338V9.71114ZM25.3338 27.0539H29.556V29.6295H25.3338V27.0539Z" fill="url(#paint2_linear)"/>
<defs>
<linearGradient id="paint0_linear" x1="-1.5904" y1="0.355583" x2="25.8973" y2="34.529" gradientUnits="userSpaceOnUse">
<stop offset="0.177083" stop-color="#32FFF3"/>
<stop offset="1" stop-color="#374CB8"/>
</linearGradient>
<linearGradient id="paint1_linear" x1="-36.2434" y1="-60.9755" x2="58.2617" y2="57.0852" gradientUnits="userSpaceOnUse">
<stop offset="0.177083" stop-color="#32FFF3"/>
<stop offset="1" stop-color="#374CB8"/>
</linearGradient>
<linearGradient id="paint2_linear" x1="13.971" y1="-46.1932" x2="65.15" y2="-27.0069" gradientUnits="userSpaceOnUse">
<stop offset="0.177083" stop-color="#32FFF3"/>
<stop offset="1" stop-color="#374CB8"/>
</linearGradient>
</defs>
</svg>
