<svg width="23" height="25" viewBox="0 0 23 25" fill="none" xmlns="http://www.w3.org/2000/svg">
<path d="M22.1569 16.6379L19.8294 14.3103V10.3448C19.8266 8.20411 19.033 6.1399 17.6009 4.54872C16.1688 2.95754 14.1993 1.9516 12.0707 1.72414V0H10.3466V1.72414C8.22389 1.96613 6.26306 2.97637 4.83385 4.56439C3.40463 6.1524 2.6058 8.20845 2.58797 10.3448V14.3103L0.260388 16.6379C0.176248 16.7139 0.10956 16.8071 0.0649141 16.9113C0.0202684 17.0155 -0.00127468 17.1281 0.00176752 17.2414V19.8276C-0.00585224 19.9428 0.0112235 20.0582 0.0518515 20.1663C0.0924794 20.2743 0.155722 20.3725 0.237345 20.4541C0.318967 20.5357 0.417086 20.5989 0.525132 20.6396C0.633178 20.6802 0.748656 20.6973 0.863836 20.6897H6.89832C6.89832 21.8328 7.35244 22.9292 8.16079 23.7375C8.96914 24.5459 10.0655 25 11.2087 25C12.3518 25 13.4482 24.5459 14.2565 23.7375C15.0649 22.9292 15.519 21.8328 15.519 20.6897H21.5535C21.6687 20.6973 21.7842 20.6802 21.8922 20.6396C22.0002 20.5989 22.0984 20.5357 22.18 20.4541C22.2616 20.3725 22.3249 20.2743 22.3655 20.1663C22.4061 20.0582 22.4232 19.9428 22.4156 19.8276V17.2414C22.4186 17.1281 22.3971 17.0155 22.3524 16.9113C22.3078 16.8071 22.2411 16.7139 22.1569 16.6379ZM11.2087 23.2759C10.5228 23.2759 9.86495 23.0034 9.37994 22.5184C8.89493 22.0334 8.62246 21.3756 8.62246 20.6897H13.7949C13.7949 21.3756 13.5224 22.0334 13.0374 22.5184C12.5524 23.0034 11.8946 23.2759 11.2087 23.2759ZM20.6914 18.9655H1.72591V17.5862L4.05349 15.2586C4.13763 15.1827 4.20432 15.0894 4.24897 14.9853C4.29361 14.8811 4.31516 14.7685 4.31211 14.6552V10.3448C4.31211 8.51575 5.03871 6.76158 6.33207 5.46823C7.62542 4.17487 9.37959 3.44828 11.2087 3.44828C13.0377 3.44828 14.7919 4.17487 16.0853 5.46823C17.3786 6.76158 18.1052 8.51575 18.1052 10.3448V14.6552C18.1022 14.7685 18.1237 14.8811 18.1684 14.9853C18.213 15.0894 18.2797 15.1827 18.3638 15.2586L20.6914 17.5862V18.9655Z" fill="black"/>
</svg>
