<svg width="28" height="27" viewBox="0 0 28 27" fill="none" xmlns="http://www.w3.org/2000/svg">
<path d="M22.1569 18.6379L19.8294 16.3103V12.3448C19.8266 10.2041 19.033 8.1399 17.6009 6.54872C16.1688 4.95754 14.1993 3.9516 12.0707 3.72414V2H10.3466V3.72414C8.22389 3.96613 6.26306 4.97637 4.83385 6.56439C3.40463 8.1524 2.6058 10.2084 2.58797 12.3448V16.3103L0.260388 18.6379C0.176248 18.7139 0.10956 18.8071 0.0649141 18.9113C0.0202684 19.0155 -0.00127468 19.1281 0.00176752 19.2414V21.8276C-0.00585224 21.9428 0.0112235 22.0582 0.0518515 22.1663C0.0924794 22.2743 0.155722 22.3725 0.237345 22.4541C0.318967 22.5357 0.417086 22.5989 0.525132 22.6396C0.633178 22.6802 0.748656 22.6973 0.863836 22.6897H6.89832C6.89832 23.8328 7.35244 24.9292 8.16079 25.7375C8.96914 26.5459 10.0655 27 11.2087 27C12.3518 27 13.4482 26.5459 14.2565 25.7375C15.0649 24.9292 15.519 23.8328 15.519 22.6897H21.5535C21.6687 22.6973 21.7842 22.6802 21.8922 22.6396C22.0002 22.5989 22.0984 22.5357 22.18 22.4541C22.2616 22.3725 22.3248 22.2743 22.3655 22.1663C22.4061 22.0582 22.4232 21.9428 22.4156 21.8276V19.2414C22.4186 19.1281 22.3971 19.0155 22.3524 18.9113C22.3078 18.8071 22.2411 18.7139 22.1569 18.6379V18.6379ZM11.2087 25.2759C10.5228 25.2759 9.86495 25.0034 9.37994 24.5184C8.89493 24.0334 8.62246 23.3756 8.62246 22.6897H13.7949C13.7949 23.3756 13.5224 24.0334 13.0374 24.5184C12.5524 25.0034 11.8946 25.2759 11.2087 25.2759V25.2759ZM20.6914 20.9655H1.72591V19.5862L4.05349 17.2586C4.13763 17.1827 4.20432 17.0894 4.24897 16.9853C4.29361 16.8811 4.31515 16.7685 4.31211 16.6552V12.3448C4.31211 10.5157 5.03871 8.76158 6.33207 7.46823C7.62542 6.17487 9.37959 5.44828 11.2087 5.44828C13.0377 5.44828 14.7919 6.17487 16.0853 7.46823C17.3786 8.76158 18.1052 10.5157 18.1052 12.3448V16.6552C18.1022 16.7685 18.1237 16.8811 18.1684 16.9853C18.213 17.0894 18.2797 17.1827 18.3638 17.2586L20.6914 19.5862V20.9655Z" fill="black"/>
<circle cx="20" cy="8" r="8" fill="url(#paint0_linear)"/>
<defs>
<linearGradient id="paint0_linear" x1="-5.52941" y1="-28.4848" x2="37.9175" y2="25.5294" gradientUnits="userSpaceOnUse">
<stop offset="0.177083" stop-color="#32FFF3"/>
<stop offset="1" stop-color="#374CB8"/>
</linearGradient>
</defs>
</svg>
