<svg width="24" height="24" viewBox="0 0 24 24" fill="none" xmlns="http://www.w3.org/2000/svg">
<path d="M19 9.00004C18.3811 9.00178 17.7778 9.19491 17.2729 9.55297C16.7681 9.91103 16.3863 10.4165 16.18 11H3C2.73478 11 2.48043 11.1054 2.29289 11.2929C2.10536 11.4805 2 11.7348 2 12C2 12.2653 2.10536 12.5196 2.29289 12.7071C2.48043 12.8947 2.73478 13 3 13H16.18C16.3635 13.5189 16.6861 13.9773 17.1126 14.3251C17.5392 14.6729 18.0532 14.8966 18.5984 14.9719C19.1435 15.0471 19.6989 14.9709 20.2037 14.7516C20.7085 14.5323 21.1432 14.1784 21.4603 13.7286C21.7775 13.2788 21.9647 12.7504 22.0017 12.2013C22.0386 11.6522 21.9238 11.1035 21.6697 10.6153C21.4157 10.1271 21.0323 9.71816 20.5614 9.43326C20.0905 9.14837 19.5504 8.99849 19 9.00004ZM19 13C18.8022 13 18.6089 12.9414 18.4444 12.8315C18.28 12.7216 18.1518 12.5654 18.0761 12.3827C18.0004 12.2 17.9806 11.9989 18.0192 11.8049C18.0578 11.611 18.153 11.4328 18.2929 11.2929C18.4327 11.1531 18.6109 11.0578 18.8049 11.0193C18.9989 10.9807 19.2 11.0005 19.3827 11.0762C19.5654 11.1518 19.7216 11.28 19.8315 11.4445C19.9414 11.6089 20 11.8023 20 12C20 12.2653 19.8946 12.5196 19.7071 12.7071C19.5196 12.8947 19.2652 13 19 13ZM3 7.00004H4.18C4.3902 7.57919 4.77363 8.07958 5.27817 8.43319C5.7827 8.78681 6.38388 8.97651 7 8.97651C7.61612 8.97651 8.2173 8.78681 8.72184 8.43319C9.22637 8.07958 9.6098 7.57919 9.82 7.00004H21C21.2652 7.00004 21.5196 6.89468 21.7071 6.70714C21.8946 6.51961 22 6.26525 22 6.00004C22 5.73482 21.8946 5.48047 21.7071 5.29293C21.5196 5.10539 21.2652 5.00004 21 5.00004H9.82C9.6098 4.42088 9.22637 3.9205 8.72184 3.56688C8.2173 3.21326 7.61612 3.02356 7 3.02356C6.38388 3.02356 5.7827 3.21326 5.27817 3.56688C4.77363 3.9205 4.3902 4.42088 4.18 5.00004H3C2.73478 5.00004 2.48043 5.10539 2.29289 5.29293C2.10536 5.48047 2 5.73482 2 6.00004C2 6.26525 2.10536 6.51961 2.29289 6.70714C2.48043 6.89468 2.73478 7.00004 3 7.00004ZM7 5.00004C7.19778 5.00004 7.39112 5.05869 7.55557 5.16857C7.72002 5.27845 7.84819 5.43463 7.92388 5.61735C7.99957 5.80008 8.01937 6.00115 7.98079 6.19513C7.9422 6.38911 7.84696 6.56729 7.70711 6.70714C7.56725 6.847 7.38907 6.94224 7.19509 6.98082C7.00111 7.01941 6.80004 6.9996 6.61732 6.92392C6.43459 6.84823 6.27841 6.72006 6.16853 6.55561C6.05865 6.39116 6 6.19782 6 6.00004C6 5.73482 6.10536 5.48047 6.29289 5.29293C6.48043 5.10539 6.73478 5.00004 7 5.00004ZM21 17H13.82C13.6098 16.4209 13.2264 15.9205 12.7218 15.5669C12.2173 15.2133 11.6161 15.0236 11 15.0236C10.3839 15.0236 9.7827 15.2133 9.27816 15.5669C8.77363 15.9205 8.3902 16.4209 8.18 17H3C2.73478 17 2.48043 17.1054 2.29289 17.2929C2.10536 17.4805 2 17.7348 2 18C2 18.2653 2.10536 18.5196 2.29289 18.7071C2.48043 18.8947 2.73478 19 3 19H8.18C8.3902 19.5792 8.77363 20.0796 9.27816 20.4332C9.7827 20.7868 10.3839 20.9765 11 20.9765C11.6161 20.9765 12.2173 20.7868 12.7218 20.4332C13.2264 20.0796 13.6098 19.5792 13.82 19H21C21.2652 19 21.5196 18.8947 21.7071 18.7071C21.8946 18.5196 22 18.2653 22 18C22 17.7348 21.8946 17.4805 21.7071 17.2929C21.5196 17.1054 21.2652 17 21 17ZM11 19C10.8022 19 10.6089 18.9414 10.4444 18.8315C10.28 18.7216 10.1518 18.5654 10.0761 18.3827C10.0004 18.2 9.98063 17.9989 10.0192 17.8049C10.0578 17.611 10.153 17.4328 10.2929 17.2929C10.4327 17.1531 10.6109 17.0578 10.8049 17.0193C10.9989 16.9807 11.2 17.0005 11.3827 17.0762C11.5654 17.1518 11.7216 17.28 11.8315 17.4445C11.9414 17.6089 12 17.8023 12 18C12 18.2653 11.8946 18.5196 11.7071 18.7071C11.5196 18.8947 11.2652 19 11 19Z" fill="black"/>
</svg>
