<svg width="38" height="48" viewBox="0 0 38 48" fill="none" xmlns="http://www.w3.org/2000/svg">
<path d="M37.3487 16.1654L27.84 12.4823C28.3373 11.0692 28.4885 9.5574 28.2811 8.07375C28.0737 6.59009 27.5136 5.17779 26.6478 3.95524C25.7819 2.73269 24.6357 1.73552 23.305 1.04733C21.9743 0.359148 20.4981 0 19 0C17.5019 0 16.0257 0.359148 14.695 1.04733C13.3643 1.73552 12.2181 2.73269 11.3522 3.95524C10.4864 5.17779 9.92633 6.59009 9.71889 8.07375C9.51146 9.5574 9.66273 11.0692 10.16 12.4823L0.651261 16.1654C0.459319 16.2403 0.294458 16.3713 0.178254 16.5415C0.0620513 16.7116 -7.77867e-05 16.9129 7.30905e-08 17.1189V39.1753C-5.81987e-05 39.3816 0.0622736 39.5831 0.178813 39.7534C0.295353 39.9237 0.460653 40.0547 0.653016 40.1293L18.6299 47.098C18.748 47.1436 18.8735 47.1669 19 47.167C19.1253 47.1644 19.2489 47.1386 19.3648 47.091L19.3701 47.098L37.3487 40.1293C37.5408 40.0544 37.7057 39.9233 37.8219 39.753C37.9381 39.5828 38.0002 39.3814 38 39.1753V17.1189C38.0001 16.9129 37.938 16.7116 37.8217 16.5415C37.7055 16.3713 37.5407 16.2403 37.3487 16.1654ZM34.148 17.1189L30.8291 18.405L25.329 16.2887C25.9556 15.7122 26.5012 15.0534 26.9508 14.3303L34.148 17.1189ZM23.3168 17.707L27.9937 19.5059L25.353 20.5289L20.5089 18.6365C21.4884 18.4783 22.4364 18.1645 23.3168 17.707ZM26.5 22.2781L29.9358 20.9464V25.2088L29.3611 24.8341C29.1601 24.7032 28.9195 24.6471 28.6814 24.6755C28.4432 24.7039 28.2226 24.8151 28.058 24.9896L26.5 26.6429V22.2781ZM19 2.07205C20.4488 2.07205 21.8651 2.50167 23.0697 3.30658C24.2743 4.11149 25.2132 5.25553 25.7676 6.59404C26.3221 7.93255 26.4671 9.40541 26.1845 10.8264C25.9018 12.2473 25.2042 13.5526 24.1797 14.577C23.1553 15.6015 21.85 16.2991 20.4291 16.5818C19.0081 16.8644 17.5353 16.7193 16.1968 16.1649C14.8582 15.6105 13.7142 14.6716 12.9093 13.467C12.1044 12.2623 11.6748 10.8461 11.6748 9.39729C11.6769 7.45518 12.4494 5.59324 13.8227 4.21996C15.1959 2.84668 17.0579 2.07422 19 2.07205ZM11.6338 15.1674L10.2647 14.6325L11.0486 14.3285C11.2283 14.6192 11.4236 14.8998 11.6338 15.1692V15.1674ZM7.44274 15.7263L22.5282 21.6233L19 22.9908L3.85203 17.1189L7.44274 15.7263ZM2.04615 38.4743V18.6132L17.9769 24.789V44.6502L2.04615 38.4743ZM20.0231 44.6502V24.789L24.4539 23.0703V29.221C24.454 29.4259 24.5156 29.6261 24.6308 29.7956C24.746 29.9651 24.9094 30.0961 25.0999 30.1716C25.2198 30.2196 25.3478 30.2442 25.477 30.2441C25.6165 30.2441 25.7545 30.2156 25.8826 30.1603C26.0107 30.105 26.1261 30.0241 26.2218 29.9225L28.9607 27.0153L30.4006 27.9506C30.5549 28.0504 30.7333 28.1067 30.9169 28.1138C31.1005 28.1208 31.2827 28.0782 31.4441 27.9905C31.6056 27.9028 31.7405 27.7733 31.8347 27.6155C31.9288 27.4576 31.9787 27.2774 31.979 27.0936V20.153L35.9538 18.6132V38.4743L20.0231 44.6502Z" fill="url(#paint0_linear)"/>
<path d="M17.1777 12.4082C17.3664 12.5679 17.6065 12.6539 17.8537 12.6502C18.1009 12.6465 18.3384 12.5535 18.5223 12.3883L23.4839 7.92886C23.5891 7.84056 23.6754 7.732 23.7377 7.60964C23.8 7.48729 23.837 7.35364 23.8466 7.21667C23.8562 7.0797 23.8381 6.94221 23.7934 6.81238C23.7487 6.68255 23.6783 6.56305 23.5865 6.46099C23.4946 6.35893 23.3831 6.27641 23.2587 6.21833C23.1343 6.16026 22.9995 6.12782 22.8623 6.12296C22.725 6.11809 22.5882 6.1409 22.46 6.19001C22.3318 6.23913 22.2148 6.31356 22.1159 6.40886L17.8178 10.2726L15.8606 8.61812C15.6533 8.44291 15.385 8.3572 15.1146 8.37984C14.8442 8.40248 14.5938 8.53162 14.4186 8.73884C14.2434 8.94607 14.1577 9.2144 14.1803 9.48482C14.203 9.75524 14.3321 10.0056 14.5393 10.1808L17.1777 12.4082Z" fill="url(#paint1_linear)"/>
<defs>
<linearGradient id="paint0_linear" x1="-41.6324" y1="-83.9715" x2="89.4934" y2="47.3644" gradientUnits="userSpaceOnUse">
<stop offset="0.177083" stop-color="#32FFF3"/>
<stop offset="1" stop-color="#374CB8"/>
</linearGradient>
<linearGradient id="paint1_linear" x1="3.57987" y1="-5.49949" x2="18.7989" y2="22.5346" gradientUnits="userSpaceOnUse">
<stop offset="0.177083" stop-color="#32FFF3"/>
<stop offset="1" stop-color="#374CB8"/>
</linearGradient>
</defs>
</svg>
