<svg width="46" height="53" viewBox="0 0 46 53" fill="none" xmlns="http://www.w3.org/2000/svg">
<g filter="url(#filter0_d)">
<path d="M38.2085 8.38659L38.1894 8.34C38.1618 8.28266 38.1258 8.22983 38.0824 8.18333L33.7502 4.12226C33.7502 4.12226 33.2362 3.74798 33.1445 3.77255L20.2465 7.22855L17.7568 13.4524L17.7237 13.5125L17.7235 13.5366C17.7049 13.598 17.693 13.6613 17.6881 13.7253L17.6847 13.7758C17.6798 13.9361 17.7244 14.094 17.8125 14.228L17.8446 14.2752C17.8855 14.3303 17.9307 14.3786 17.9795 14.4193L30.5402 23.7855L30.5666 23.8076C30.6315 23.8568 30.705 23.896 30.7901 23.927L30.8536 23.9463C30.9161 23.9654 30.9792 23.9772 31.0683 23.985L31.1261 23.9885C31.2241 23.9873 31.3068 23.9769 31.3846 23.9561C31.4635 23.9349 31.5376 23.9038 31.6341 23.8493L31.6916 23.8098C31.7478 23.7712 31.7964 23.729 31.8526 23.6694L31.8876 23.6319C31.946 23.5614 31.989 23.4905 32.0093 23.4385L38.2128 9.03108C38.2661 8.89806 38.2855 8.75385 38.2693 8.61146L38.2599 8.54791L38.2507 8.49816L38.2085 8.38659ZM33.0888 9.41947L33.7773 6.64272L35.7611 8.70343L33.0888 9.41947ZM32.6712 11.0674L35.8422 10.2177L32.3508 18.3289L32.6712 11.0674ZM31.3085 9.11927L28.6764 7.01776L32.0538 6.1128L31.3085 9.11927ZM25.7035 12.9344L30.7953 11.57L30.4089 20.3145L25.7035 12.9344ZM25.8244 11.366L27.1228 8.05051L29.9049 10.2726L25.8244 11.366ZM24.135 10.809L22.6068 8.64412L25.2613 7.93283L24.135 10.809ZM27.7354 19.5661L20.6556 14.2869L23.827 13.4371L27.7354 19.5661ZM21.3286 9.99626L22.8574 12.161L20.2023 12.8724L21.3286 9.99626Z" fill="white"/>
</g>
<g filter="url(#filter1_d)">
<path d="M21.7185 6.63707L21.7209 6.60312C21.7214 6.56013 21.7153 6.51731 21.703 6.47614L20.2941 2.71811C20.2941 2.71811 20.0947 2.33741 20.0318 2.32483L11.1817 0.5565L7.80925 3.58213L7.77124 3.60862L7.7639 3.62317C7.7342 3.6548 7.70804 3.68958 7.68591 3.72689L7.66874 3.75653C7.61774 3.85216 7.5975 3.9612 7.61078 4.06877L7.61609 4.10699C7.62436 4.15261 7.63729 4.19542 7.65466 4.23468L12.4608 13.6714L12.4701 13.6927C12.4947 13.7419 12.5275 13.7877 12.5698 13.8319L12.6025 13.8626C12.6346 13.8929 12.6693 13.9189 12.721 13.9504L12.7549 13.9698C12.8147 13.9984 12.8679 14.0169 12.9213 14.0276C12.9754 14.0384 13.0296 14.0417 13.1044 14.0376L13.1511 14.0309C13.1967 14.0243 13.2388 14.0133 13.2907 13.994L13.3232 13.9818C13.3797 13.9566 13.4269 13.9265 13.4549 13.901L21.5281 7.02886C21.6003 6.96424 21.6552 6.88268 21.688 6.79152L21.7014 6.75022L21.7107 6.71731L21.7185 6.63707ZM18.3071 5.72978L19.5558 4.25346L20.1407 6.09615L18.3071 5.72978ZM17.5606 6.60323L19.7364 7.03798L15.1919 10.9072L17.5606 6.60323ZM17.3182 5.01476L16.3527 2.95319L18.6701 3.41623L17.3182 5.01476ZM12.7795 5.64794L16.2733 6.34604L13.4206 11.5289L12.7795 5.64794ZM13.3224 4.73381L15.102 3.1137L16.1224 5.29326L13.3224 4.73381ZM12.4656 3.89042L12.1879 2.12103L14.0094 2.48498L12.4656 3.89042ZM12.0248 10.2748L9.31581 4.95587L11.492 5.39068L12.0248 10.2748ZM11.0085 2.55758L11.2866 4.32703L9.46476 3.96302L11.0085 2.55758Z" fill="white"/>
</g>
<g filter="url(#filter2_d)">
<path d="M30.0704 28.8741C31.4142 28.8741 32.5968 28.1395 33.206 27.0286L39.6205 15.3999C39.7715 15.1283 39.849 14.822 39.8453 14.5113C39.8416 14.2006 39.7568 13.8962 39.5993 13.6283C39.4418 13.3604 39.2171 13.1383 38.9474 12.9839C38.6778 12.8296 38.3724 12.7483 38.0617 12.7481H11.5434L9.85911 9.16455H4V12.7481H7.58356L14.034 26.3477L11.6151 30.7196C10.3071 33.1206 12.0272 36.0412 14.7507 36.0412H36.252V32.4577H14.7507L16.7216 28.8741H30.0704ZM13.2456 16.3317H35.0157L30.0704 25.2906H17.4921L13.2456 16.3317ZM14.7507 37.833C12.7797 37.833 11.185 39.4456 11.185 41.4166C11.185 43.3875 12.7797 45.0001 14.7507 45.0001C16.7216 45.0001 18.3342 43.3875 18.3342 41.4166C18.3342 39.4456 16.7216 37.833 14.7507 37.833ZM32.6684 37.833C30.6975 37.833 29.1028 39.4456 29.1028 41.4166C29.1028 43.3875 30.6975 45.0001 32.6684 45.0001C34.6394 45.0001 36.252 43.3875 36.252 41.4166C36.252 39.4456 34.6394 37.833 32.6684 37.833Z" fill="white"/>
</g>
<defs>
<filter id="filter0_d" x="12.1875" y="2.8125" width="33.4677" height="31.8951" filterUnits="userSpaceOnUse" color-interpolation-filters="sRGB">
<feFlood flood-opacity="0" result="BackgroundImageFix"/>
<feColorMatrix in="SourceAlpha" type="matrix" values="0 0 0 0 0 0 0 0 0 0 0 0 0 0 0 0 0 0 127 0"/>
<feOffset dy="4"/>
<feGaussianBlur stdDeviation="2"/>
<feColorMatrix type="matrix" values="0 0 0 0 0 0 0 0 0 0 0 0 0 0 0 0 0 0 0.25 0"/>
<feBlend mode="normal" in2="BackgroundImageFix" result="effect1_dropShadow"/>
<feBlend mode="normal" in="SourceGraphic" in2="effect1_dropShadow" result="shape"/>
</filter>
<filter id="filter1_d" x="1.875" y="0" width="24.6152" height="23.4357" filterUnits="userSpaceOnUse" color-interpolation-filters="sRGB">
<feFlood flood-opacity="0" result="BackgroundImageFix"/>
<feColorMatrix in="SourceAlpha" type="matrix" values="0 0 0 0 0 0 0 0 0 0 0 0 0 0 0 0 0 0 127 0"/>
<feOffset dy="4"/>
<feGaussianBlur stdDeviation="2"/>
<feColorMatrix type="matrix" values="0 0 0 0 0 0 0 0 0 0 0 0 0 0 0 0 0 0 0.25 0"/>
<feBlend mode="normal" in2="BackgroundImageFix" result="effect1_dropShadow"/>
<feBlend mode="normal" in="SourceGraphic" in2="effect1_dropShadow" result="shape"/>
</filter>
<filter id="filter2_d" x="0" y="9.16455" width="43.8454" height="43.8356" filterUnits="userSpaceOnUse" color-interpolation-filters="sRGB">
<feFlood flood-opacity="0" result="BackgroundImageFix"/>
<feColorMatrix in="SourceAlpha" type="matrix" values="0 0 0 0 0 0 0 0 0 0 0 0 0 0 0 0 0 0 127 0"/>
<feOffset dy="4"/>
<feGaussianBlur stdDeviation="2"/>
<feColorMatrix type="matrix" values="0 0 0 0 0 0 0 0 0 0 0 0 0 0 0 0 0 0 0.25 0"/>
<feBlend mode="normal" in2="BackgroundImageFix" result="effect1_dropShadow"/>
<feBlend mode="normal" in="SourceGraphic" in2="effect1_dropShadow" result="shape"/>
</filter>
</defs>
</svg>
