<svg width="22" height="25" viewBox="0 0 22 25" fill="none" xmlns="http://www.w3.org/2000/svg">
<path d="M15.3125 14.8438C13.9111 14.8438 13.2373 15.625 10.9375 15.625C8.63769 15.625 7.96875 14.8438 6.5625 14.8438C2.93945 14.8438 0 17.7832 0 21.4062V22.6562C0 23.9502 1.0498 25 2.34375 25H19.5312C20.8252 25 21.875 23.9502 21.875 22.6562V21.4062C21.875 17.7832 18.9355 14.8438 15.3125 14.8438ZM19.5312 22.6562H2.34375V21.4062C2.34375 19.082 4.23828 17.1875 6.5625 17.1875C7.27539 17.1875 8.43262 17.9688 10.9375 17.9688C13.4619 17.9688 14.5947 17.1875 15.3125 17.1875C17.6367 17.1875 19.5312 19.082 19.5312 21.4062V22.6562ZM10.9375 14.0625C14.8193 14.0625 17.9687 10.9131 17.9687 7.03125C17.9687 3.14941 14.8193 0 10.9375 0C7.05566 0 3.90625 3.14941 3.90625 7.03125C3.90625 10.9131 7.05566 14.0625 10.9375 14.0625ZM10.9375 2.34375C13.5205 2.34375 15.625 4.44824 15.625 7.03125C15.625 9.61426 13.5205 11.7188 10.9375 11.7188C8.35449 11.7188 6.25 9.61426 6.25 7.03125C6.25 4.44824 8.35449 2.34375 10.9375 2.34375Z" fill="url(#paint0_linear)"/>
<defs>
<linearGradient id="paint0_linear" x1="-23.966" y1="-44.5076" x2="45.2894" y2="30.83" gradientUnits="userSpaceOnUse">
<stop offset="0.177083" stop-color="#32FFF3"/>
<stop offset="1" stop-color="#374CB8"/>
</linearGradient>
</defs>
</svg>
