<svg width="48" height="48" viewBox="0 0 48 48" fill="none" xmlns="http://www.w3.org/2000/svg">
<g filter="url(#filter0_d)">
<path d="M29.1429 16.4574V17.6165C29.1429 17.7225 29.1085 17.8097 29.0398 17.8778C28.9711 17.946 28.8833 17.9801 28.7764 17.9801H26.8521C26.6764 19.0711 26.1839 19.9574 25.3745 20.6393C24.5651 21.3211 23.5113 21.7378 22.2132 21.8893C23.4884 23.2378 25.2409 25.2682 27.4706 27.9804C27.5775 28.1016 27.5928 28.2304 27.5164 28.3667C27.4553 28.5031 27.3446 28.5713 27.1842 28.5713H24.9507C24.8285 28.5713 24.7331 28.5258 24.6644 28.4349C22.3277 25.6546 20.4264 23.4916 18.9602 21.9461C18.8915 21.8779 18.8572 21.7946 18.8572 21.6961V20.2529C18.8572 20.1544 18.8934 20.0692 18.966 19.9972C19.0385 19.9252 19.1244 19.8893 19.2237 19.8893H20.5065C21.5145 19.8893 22.3258 19.7264 22.9405 19.4006C23.5552 19.0748 23.9466 18.6013 24.1146 17.9801H19.2237C19.1168 17.9801 19.029 17.946 18.9602 17.8778C18.8915 17.8097 18.8572 17.7225 18.8572 17.6165V16.4574C18.8572 16.3513 18.8915 16.2642 18.9602 16.196C19.029 16.1278 19.1168 16.0937 19.2237 16.0937H23.9542C23.519 15.2376 22.4957 14.8096 20.8845 14.8096H19.2237C19.1244 14.8096 19.0385 14.7736 18.966 14.7016C18.8934 14.6297 18.8572 14.5444 18.8572 14.4459V12.9345C18.8572 12.8285 18.8915 12.7414 18.9602 12.6732C19.029 12.605 19.1168 12.5709 19.2237 12.5709H28.7534C28.8604 12.5709 28.9482 12.605 29.0169 12.6732C29.0856 12.7414 29.12 12.8285 29.12 12.9345V14.0937C29.12 14.1997 29.0856 14.2869 29.0169 14.355C28.9482 14.4232 28.8604 14.4573 28.7534 14.4573H26.0847C26.4435 14.9194 26.6879 15.4649 26.8177 16.0937H28.7764C28.8833 16.0937 28.9711 16.1278 29.0398 16.196C29.1085 16.2642 29.1429 16.3513 29.1429 16.4574Z" fill="white"/>
<path d="M19.452 40C19.0824 40 18.7065 39.9475 18.3336 39.8388C16.5982 39.333 15.4578 37.7725 15.496 35.9557C15.507 35.4324 15.2633 34.972 14.8272 34.693C14.4024 34.4209 13.8988 34.3915 13.4457 34.612C11.8349 35.396 9.95971 35.0143 8.7795 33.6624C7.58483 32.2939 7.45968 30.3588 8.46833 28.8471C8.75801 28.4129 8.79911 27.891 8.58099 27.4153C8.36755 26.9497 7.95733 26.6472 7.45546 26.5854C5.67323 26.3656 4.30177 25.0171 4.04295 23.2299C3.78318 21.4364 4.7195 19.7481 6.3729 19.0288C6.84125 18.825 7.15226 18.4143 7.22625 17.902C7.30078 17.3857 7.11625 16.8992 6.71993 16.5674C5.33128 15.4046 4.9084 13.5148 5.66752 11.8649C6.41962 10.2303 8.11217 9.3302 9.87901 9.62512C10.3753 9.70794 10.8507 9.5359 11.1837 9.15317C11.5262 8.75949 11.6324 8.24668 11.4753 7.74629C10.9302 6.01034 11.5911 4.18885 13.12 3.21361C14.632 2.24915 16.5392 2.41431 17.8659 3.62455C18.241 3.96674 18.7338 4.08174 19.2182 3.94018C19.71 3.79635 20.0693 3.42611 20.204 2.92439C20.6735 1.17524 22.199 7.81254e-05 24 0C25.8011 0 27.3267 1.17516 27.7961 2.92439C27.9308 3.42603 28.29 3.79627 28.7818 3.9401C29.2662 4.08174 29.759 3.96674 30.1342 3.62447C31.4608 2.41423 33.368 2.24907 34.8801 3.21353C36.4089 4.18869 37.0699 6.01026 36.5248 7.74621C36.3677 8.2466 36.474 8.75934 36.8164 9.15301C37.1493 9.53567 37.6247 9.70778 38.121 9.62497C39.8885 9.32997 41.5805 10.2302 42.3325 11.8648C43.0917 13.5148 42.6688 15.4045 41.2801 16.5673C40.8838 16.8991 40.6992 17.3856 40.7738 17.902C40.8477 18.4142 41.1588 18.8249 41.6272 19.0287C43.2805 19.7481 44.2168 21.4364 43.9571 23.2299C43.6982 25.0171 42.3268 26.3655 40.5445 26.5853C40.0427 26.6472 39.6324 26.9497 39.419 27.4153C39.201 27.8909 39.242 28.4128 39.5317 28.847C40.5402 30.3588 40.4152 32.2939 39.2205 33.6624C38.0402 35.0144 36.165 35.396 34.5543 34.612C34.1011 34.3914 33.5976 34.4211 33.1727 34.693C32.7367 34.972 32.493 35.4324 32.5039 35.9557C32.542 37.7725 31.4017 39.333 29.6663 39.8388C27.9426 40.3413 26.1548 39.6435 25.2182 38.1028C24.9515 37.6639 24.5073 37.4122 23.9998 37.4122C23.4924 37.4122 23.0483 37.6639 22.7816 38.1028C22.0478 39.3103 20.7911 40 19.452 40ZM24 34.9121C25.3804 34.9121 26.6346 35.6194 27.3546 36.8042C27.8838 37.6747 28.7227 37.5098 28.967 37.4386C29.4801 37.2891 30.0221 36.8348 30.0047 36.0082C29.9754 34.6147 30.656 33.3359 31.8251 32.5874C32.9833 31.846 34.4125 31.7625 35.6484 32.3641C36.5517 32.8037 37.1695 32.2105 37.3373 32.0183C37.6948 31.6087 37.9128 30.925 37.4522 30.2345C36.6818 29.0797 36.5676 27.6363 37.1466 26.3733C37.7212 25.1203 38.877 24.272 40.2387 24.1041C41.0387 24.0054 41.406 23.4027 41.483 22.8715C41.5607 22.3353 41.3773 21.6464 40.6298 21.3212C39.3682 20.7723 38.4971 19.6276 38.2996 18.2591C38.1015 16.8867 38.6158 15.5377 39.6753 14.6506C40.3071 14.1215 40.289 13.4044 40.0614 12.9099C39.9538 12.6759 39.5254 11.9253 38.5326 12.091C37.18 12.3168 35.8331 11.8319 34.9303 10.794C34.0179 9.74528 33.7225 8.3259 34.1397 6.99722C34.3887 6.20448 33.991 5.61167 33.5358 5.32135C33.3216 5.18463 32.5645 4.79143 31.819 5.47151C30.7993 6.40151 29.402 6.72628 28.0801 6.33956C26.7511 5.95089 25.7424 4.91643 25.3817 3.57244C25.1694 2.78173 24.5288 2.50001 24.0001 2.50001C23.4713 2.50001 22.8308 2.78173 22.6185 3.57252C22.2578 4.91651 21.249 5.95097 19.92 6.33964C18.5984 6.7262 17.2007 6.40159 16.1812 5.47159C15.4357 4.79158 14.6787 5.18479 14.4644 5.32135C14.0092 5.61175 13.6115 6.20448 13.8605 6.9973C14.2777 8.32598 13.9821 9.74528 13.0699 10.794C12.1669 11.8319 10.8204 12.3169 9.46753 12.0911C8.4749 11.9255 8.04631 12.676 7.93865 12.91C7.71108 13.4046 7.69303 14.1216 8.3249 14.6507C9.38441 15.5378 9.8987 16.8869 9.70058 18.2593C9.50308 19.6277 8.63192 20.7724 7.37031 21.3213C6.62282 21.6466 6.43946 22.3354 6.51712 22.8717C6.59407 23.4028 6.96133 24.0057 7.76139 24.1043C9.12309 24.2721 10.279 25.1205 10.8535 26.3736C11.4326 27.6365 11.3184 29.08 10.5479 30.2347C10.0873 30.9251 10.3053 31.6088 10.6627 32.0184C10.8306 32.2106 11.4484 32.8039 12.3516 32.3643C13.5875 31.7627 15.0168 31.8462 16.175 32.5876C17.3441 33.336 18.0246 34.6148 17.9953 36.0084C17.978 36.8349 18.5199 37.2892 19.033 37.4388C19.2776 37.51 20.1163 37.6748 20.6454 36.8044C21.3656 35.6195 22.6196 34.9121 24 34.9121Z" fill="white"/>
</g>
<defs>
<filter id="filter0_d" x="0" y="0" width="48" height="48" filterUnits="userSpaceOnUse" color-interpolation-filters="sRGB">
<feFlood flood-opacity="0" result="BackgroundImageFix"/>
<feColorMatrix in="SourceAlpha" type="matrix" values="0 0 0 0 0 0 0 0 0 0 0 0 0 0 0 0 0 0 127 0"/>
<feOffset dy="4"/>
<feGaussianBlur stdDeviation="2"/>
<feColorMatrix type="matrix" values="0 0 0 0 0 0 0 0 0 0 0 0 0 0 0 0 0 0 0.25 0"/>
<feBlend mode="normal" in2="BackgroundImageFix" result="effect1_dropShadow"/>
<feBlend mode="normal" in="SourceGraphic" in2="effect1_dropShadow" result="shape"/>
</filter>
</defs>
</svg>
