<?xml version="1.0" encoding="iso-8859-1"?>
<!-- Generator: Adobe Illustrator 19.0.0, SVG Export Plug-In . SVG Version: 6.00 Build 0)  -->
<svg version="1.1" id="Capa_1" xmlns="http://www.w3.org/2000/svg" xmlns:xlink="http://www.w3.org/1999/xlink" x="0px" y="0px"
	 viewBox="0 0 512 512" style="enable-background:new 0 0 512 512;" xml:space="preserve">
<g>
	<g>
		<path d="M384,0H128c-24.431,0-44.308,19.876-44.308,44.308v93.538c0,24.431,19.876,44.308,44.308,44.308h92.344l25.213,25.212
			c2.883,2.885,6.663,4.326,10.443,4.326c3.78,0,7.56-1.441,10.443-4.326l25.213-25.212H384c24.431,0,44.308-19.876,44.308-44.308
			V44.308C428.308,19.876,408.431,0,384,0z M203.68,95.819l-7.433,7.245l1.755,10.23c0.95,5.54-1.327,11.141-5.875,14.445
			c-2.573,1.869-5.62,2.821-8.682,2.821c-2.351,0-4.71-0.56-6.872-1.696l-9.187-4.83l-9.187,4.83
			c-4.975,2.616-11.005,2.181-15.554-1.124c-4.548-3.304-6.826-8.904-5.875-14.445l1.755-10.23l-7.433-7.245
			c-4.025-3.924-5.474-9.793-3.737-15.139c1.737-5.346,6.359-9.244,11.922-10.052l10.273-1.493l4.593-9.308
			c2.488-5.041,7.623-8.233,13.244-8.233s10.756,3.192,13.244,8.233l4.593,9.308l10.272,1.493
			c5.563,0.808,10.185,4.706,11.922,10.052C209.154,86.026,207.705,91.895,203.68,95.819z M292.295,95.819l-7.433,7.245l1.755,10.23
			c0.95,5.54-1.327,11.141-5.875,14.445c-2.573,1.869-5.62,2.821-8.682,2.821c-2.351,0-4.71-0.56-6.872-1.696l-9.187-4.83
			l-9.187,4.83c-4.976,2.616-11.005,2.181-15.554-1.124c-4.548-3.304-6.826-8.904-5.875-14.445l1.755-10.23l-7.433-7.245
			c-4.025-3.924-5.474-9.793-3.737-15.139c1.737-5.346,6.359-9.244,11.922-10.052l10.272-1.493l4.593-9.308
			c2.488-5.041,7.623-8.233,13.244-8.233c5.621,0,10.756,3.192,13.244,8.233l4.593,9.308l10.273,1.493
			c5.563,0.808,10.185,4.706,11.922,10.052C297.769,86.026,296.32,91.895,292.295,95.819z M380.91,95.819l-7.433,7.245l1.755,10.23
			c0.95,5.54-1.327,11.141-5.875,14.445c-2.573,1.869-5.62,2.821-8.682,2.821c-2.351,0-4.71-0.56-6.872-1.696l-9.187-4.83
			l-9.187,4.83c-4.975,2.616-11.006,2.181-15.554-1.124c-4.548-3.304-6.826-8.904-5.875-14.445l1.755-10.23l-7.433-7.245
			c-4.025-3.924-5.474-9.793-3.737-15.139c1.737-5.346,6.359-9.244,11.922-10.052l10.272-1.493l4.593-9.308
			c2.488-5.041,7.623-8.233,13.244-8.233s10.756,3.192,13.244,8.233l4.593,9.308l10.272,1.493
			c5.563,0.808,10.185,4.706,11.922,10.052C386.385,86.026,384.935,91.895,380.91,95.819z"/>
	</g>
</g>
<g>
	<g>
		<path d="M256,231.385c-40.719,0-73.846,33.127-73.846,73.846c0,40.719,33.127,73.846,73.846,73.846s73.846-33.127,73.846-73.846
			C329.846,264.512,296.719,231.385,256,231.385z"/>
	</g>
</g>
<g>
	<g>
		<path d="M300.308,388.923h-88.615c-59.721,0-108.308,48.587-108.308,108.308c0,8.157,6.613,14.769,14.769,14.769h275.692
			c8.157,0,14.769-6.613,14.769-14.769C408.615,437.51,360.029,388.923,300.308,388.923z"/>
	</g>
</g>
<g>
</g>
<g>
</g>
<g>
</g>
<g>
</g>
<g>
</g>
<g>
</g>
<g>
</g>
<g>
</g>
<g>
</g>
<g>
</g>
<g>
</g>
<g>
</g>
<g>
</g>
<g>
</g>
<g>
</g>
</svg>
