<svg width="24" height="24" viewBox="0 0 24 24" fill="none" xmlns="http://www.w3.org/2000/svg">
<path d="M3.60039 3.59998C3.28213 3.59998 2.97691 3.7264 2.75186 3.95145C2.52682 4.17649 2.40039 4.48172 2.40039 4.79998C2.40039 5.11824 2.52682 5.42346 2.75186 5.6485C2.97691 5.87355 3.28213 5.99998 3.60039 5.99998H16.8004C17.1186 5.99998 17.4239 5.87355 17.6489 5.6485C17.874 5.42346 18.0004 5.11824 18.0004 4.79998C18.0004 4.48172 17.874 4.17649 17.6489 3.95145C17.4239 3.7264 17.1186 3.59998 16.8004 3.59998H3.60039ZM3.60039 8.39998C3.28213 8.39998 2.97691 8.5264 2.75186 8.75145C2.52682 8.97649 2.40039 9.28172 2.40039 9.59998C2.40039 9.91824 2.52682 10.2235 2.75186 10.4485C2.97691 10.6735 3.28213 10.8 3.60039 10.8H9.60039C9.91865 10.8 10.2239 10.6735 10.4489 10.4485C10.674 10.2235 10.8004 9.91824 10.8004 9.59998C10.8004 9.28172 10.674 8.97649 10.4489 8.75145C10.2239 8.5264 9.91865 8.39998 9.60039 8.39998H3.60039ZM3.60039 13.2C3.28213 13.2 2.97691 13.3264 2.75186 13.5514C2.52682 13.7765 2.40039 14.0817 2.40039 14.4C2.40039 14.7182 2.52682 15.0235 2.75186 15.2485C2.97691 15.4735 3.28213 15.6 3.60039 15.6H8.40039C8.71865 15.6 9.02387 15.4735 9.24892 15.2485C9.47396 15.0235 9.60039 14.7182 9.60039 14.4C9.60039 14.0817 9.47396 13.7765 9.24892 13.5514C9.02387 13.3264 8.71865 13.2 8.40039 13.2H3.60039ZM15.6004 19.2C15.6004 19.5182 15.7268 19.8235 15.9519 20.0485C16.1769 20.2735 16.4821 20.4 16.8004 20.4C17.1186 20.4 17.4239 20.2735 17.6489 20.0485C17.874 19.8235 18.0004 19.5182 18.0004 19.2V12.4968L19.552 14.0484C19.7783 14.267 20.0814 14.3879 20.3961 14.3852C20.7107 14.3825 21.0117 14.2562 21.2342 14.0338C21.4567 13.8113 21.5829 13.5103 21.5856 13.1957C21.5883 12.881 21.4674 12.5779 21.2488 12.3516L17.6488 8.75158C17.4238 8.52661 17.1186 8.40023 16.8004 8.40023C16.4822 8.40023 16.177 8.52661 15.952 8.75158L12.352 12.3516C12.2374 12.4623 12.146 12.5947 12.0831 12.7411C12.0202 12.8875 11.9871 13.045 11.9857 13.2043C11.9843 13.3636 12.0147 13.5216 12.075 13.6691C12.1353 13.8166 12.2244 13.9506 12.3371 14.0632C12.4498 14.1759 12.5838 14.265 12.7312 14.3254C12.8787 14.3857 13.0367 14.4161 13.1961 14.4147C13.3554 14.4133 13.5129 14.3802 13.6593 14.3173C13.8057 14.2544 13.9381 14.163 14.0488 14.0484L15.6004 12.4968V19.2Z" fill="black"/>
</svg>
