<svg width="32" height="32" viewBox="0 0 32 32" fill="none" xmlns="http://www.w3.org/2000/svg">
<path d="M16 4C13.8 4 12 5.8 12 8C12 9.113 12.477 10.117 13.219 10.844C12.5383 11.3033 11.9803 11.9221 11.5935 12.6465C11.2068 13.3709 11.003 14.1788 11 15V19.625L13 20.625V25H19V20.625L21 19.625V15C20.997 14.1788 20.7932 13.3709 20.4065 12.6465C20.0197 11.9221 19.4617 11.3033 18.781 10.844C19.523 10.117 20 9.114 20 8C20 5.8 18.2 4 16 4ZM16 6C17.117 6 18 6.883 18 8C18 9.117 17.117 10 16 10C14.883 10 14 9.117 14 8C14 6.883 14.883 6 16 6ZM16 12C17.668 12 19 13.332 19 15V18.375L17 19.375V23H15V19.375L13 18.375V15C13 13.332 14.332 12 16 12ZM9 18.875C6.082 19.691 4 21.075 4 23C4 26.281 10.035 28 16 28C21.965 28 28 26.281 28 23C28 21.074 25.918 19.691 23 18.875V20.969C24.902 21.582 26 22.375 26 23C26 24.195 22.012 26 16 26C9.988 26 6 24.195 6 23C6 22.375 7.098 21.582 9 20.969V18.875Z" fill="black"/>
</svg>
