<svg width="94" height="94" viewBox="0 0 94 94" fill="none" xmlns="http://www.w3.org/2000/svg">
<path d="M16.1562 16.1562H20.5625V33.7812H23.5V16.1562H27.9062V13.2188H16.1562V16.1562Z" fill="black"/>
<path d="M36.7188 13.2188C35.1606 13.2188 33.6663 13.8377 32.5645 14.9395C31.4627 16.0413 30.8438 17.5356 30.8438 19.0938V33.7812H33.7812V27.9062H39.6562V33.7812H42.5938V19.0938C42.5938 17.5356 41.9748 16.0413 40.873 14.9395C39.7712 13.8377 38.2769 13.2188 36.7188 13.2188ZM33.7812 24.9688V19.0938C33.7812 18.3147 34.0907 17.5675 34.6416 17.0166C35.1925 16.4657 35.9397 16.1562 36.7188 16.1562C37.4978 16.1562 38.245 16.4657 38.7959 17.0166C39.3468 17.5675 39.6562 18.3147 39.6562 19.0938V24.9688H33.7812Z" fill="black"/>
<path d="M54.3438 13.2188C54.3567 16.1929 53.316 19.0756 51.4063 21.3556C49.5161 19.2432 48.4704 16.5086 48.4688 13.6741V13.2188H45.5313V13.6741C45.5307 17.3199 46.9109 20.8306 49.3941 23.5C46.8932 26.3398 45.519 29.9972 45.5313 33.7812H48.4688C48.4559 30.8071 49.4965 27.9244 51.4063 25.6444C53.2964 27.7568 54.3421 30.4914 54.3438 33.3259V33.7812H57.2813V33.3259C57.2818 29.6801 55.9017 26.1694 53.4185 23.5C55.9193 20.6602 57.2935 17.0028 57.2813 13.2188H54.3438Z" fill="black"/>
<path d="M11.75 39.6562H61.6875C62.077 39.6562 62.4506 39.5015 62.7261 39.2261C63.0015 38.9506 63.1562 38.577 63.1562 38.1875V8.8125C63.1562 8.42296 63.0015 8.04938 62.7261 7.77394C62.4506 7.49849 62.077 7.34375 61.6875 7.34375H11.75C11.3605 7.34375 10.9869 7.49849 10.7114 7.77394C10.436 8.04938 10.2812 8.42296 10.2812 8.8125V38.1875C10.2812 38.577 10.436 38.9506 10.7114 39.2261C10.9869 39.5015 11.3605 39.6562 11.75 39.6562ZM13.2188 10.2812H60.2188V36.7188H13.2188V10.2812Z" fill="black"/>
<path d="M11.75 54.3438H20.5625C20.952 54.3438 21.3256 54.189 21.6011 53.9136C21.8765 53.6381 22.0312 53.2645 22.0312 52.875V44.0625C22.0312 43.673 21.8765 43.2994 21.6011 43.0239C21.3256 42.7485 20.952 42.5938 20.5625 42.5938H11.75C11.3605 42.5938 10.9869 42.7485 10.7114 43.0239C10.436 43.2994 10.2812 43.673 10.2812 44.0625V52.875C10.2812 53.2645 10.436 53.6381 10.7114 53.9136C10.9869 54.189 11.3605 54.3438 11.75 54.3438ZM13.2188 45.5312H19.0938V51.4062H13.2188V45.5312Z" fill="black"/>
<path d="M20.5625 71.9688H11.75C11.3605 71.9688 10.9869 72.1235 10.7114 72.3989C10.436 72.6744 10.2812 73.048 10.2812 73.4375V82.25C10.2812 82.6395 10.436 83.0131 10.7114 83.2886C10.9869 83.564 11.3605 83.7188 11.75 83.7188H20.5625C20.952 83.7188 21.3256 83.564 21.6011 83.2886C21.8765 83.0131 22.0312 82.6395 22.0312 82.25V73.4375C22.0312 73.048 21.8765 72.6744 21.6011 72.3989C21.3256 72.1235 20.952 71.9688 20.5625 71.9688ZM19.0938 80.7812H13.2188V74.9062H19.0938V80.7812Z" fill="black"/>
<path d="M22.4572 54.7697L19.9603 57.2812H11.75C11.3605 57.2812 10.9869 57.436 10.7114 57.7114C10.436 57.9869 10.2812 58.3605 10.2812 58.75V67.5625C10.2812 67.952 10.436 68.3256 10.7114 68.6011C10.9869 68.8765 11.3605 69.0313 11.75 69.0313H20.5625C20.952 69.0313 21.3256 68.8765 21.6011 68.6011C21.8765 68.3256 22.0312 67.952 22.0312 67.5625V59.3522L24.5428 56.8553L22.4572 54.7697ZM17.0228 60.2187L13.2187 64.0228V60.2187H17.0228ZM19.0937 66.0938H15.2897L19.0937 62.2897V66.0938Z" fill="black"/>
<path d="M24.9688 44.0625H63.1562V47H24.9688V44.0625Z" fill="black"/>
<path d="M24.9688 49.9375H63.1562V52.875H24.9688V49.9375Z" fill="black"/>
<path d="M71.9688 51.4062V2.9375C71.9688 2.54796 71.814 2.17438 71.5386 1.89894C71.2631 1.62349 70.8895 1.46875 70.5 1.46875H2.9375C2.54796 1.46875 2.17438 1.62349 1.89894 1.89894C1.62349 2.17438 1.46875 2.54796 1.46875 2.9375V91.0625C1.46875 91.452 1.62349 91.8256 1.89894 92.1011C2.17438 92.3765 2.54796 92.5312 2.9375 92.5312H67.5625C67.8837 92.5228 68.1932 92.4093 68.4437 92.2081C69.6078 92.413 70.7868 92.5211 71.9688 92.5312C77.4223 92.5312 82.6524 90.3648 86.5086 86.5086C90.3648 82.6524 92.5312 77.4223 92.5312 71.9688C92.5312 66.5152 90.3648 61.2851 86.5086 57.4289C82.6524 53.5727 77.4223 51.4062 71.9688 51.4062ZM4.40625 89.5938V4.40625H69.0312V51.6413C64.0395 52.3618 59.4866 54.8917 56.2384 58.75H24.9688V61.6875H54.1822C53.6156 62.6262 53.1245 63.6085 52.7134 64.625H24.9688V67.5625H51.8909C51.5726 69.0098 51.4102 70.4869 51.4062 71.9688V73.4375H24.9688V76.375H51.8909C52.1138 77.3757 52.4133 78.3578 52.7869 79.3125H24.9688V82.25H54.1822C55.9415 85.2715 58.4377 87.7981 61.4378 89.5938H4.40625ZM71.9688 89.5938C68.4829 89.5938 65.0752 88.5601 62.1768 86.6234C59.2784 84.6867 57.0194 81.9341 55.6854 78.7135C54.3514 75.493 54.0023 71.9492 54.6824 68.5303C55.3625 65.1114 57.0411 61.9709 59.506 59.506C61.9709 57.0411 65.1114 55.3625 68.5303 54.6824C71.9492 54.0023 75.493 54.3514 78.7135 55.6854C81.9341 57.0194 84.6867 59.2784 86.6234 62.1768C88.5601 65.0752 89.5938 68.4829 89.5938 71.9688C89.5938 76.6432 87.7368 81.1262 84.4315 84.4315C81.1262 87.7368 76.6432 89.5938 71.9688 89.5938Z" fill="black"/>
<path d="M79.3125 71.9688C78.441 71.9688 77.5891 72.2272 76.8645 72.7113C76.1399 73.1955 75.5752 73.8837 75.2417 74.6888C74.9082 75.4939 74.8209 76.3799 74.9909 77.2346C75.1609 78.0893 75.5806 78.8745 76.1968 79.4907C76.813 80.1069 77.5982 80.5266 78.4529 80.6966C79.3076 80.8666 80.1936 80.7793 80.9987 80.4458C81.8038 80.1123 82.492 79.5476 82.9762 78.823C83.4603 78.0984 83.7188 77.2465 83.7188 76.375C83.7188 75.2064 83.2545 74.0856 82.4282 73.2593C81.6019 72.433 80.4811 71.9688 79.3125 71.9688ZM79.3125 77.8437C79.022 77.8437 78.738 77.7576 78.4965 77.5962C78.255 77.4348 78.0667 77.2054 77.9556 76.9371C77.8444 76.6687 77.8153 76.3734 77.872 76.0885C77.9286 75.8035 78.0685 75.5418 78.2739 75.3364C78.4793 75.131 78.7411 74.9911 79.026 74.9345C79.3109 74.8778 79.6062 74.9069 79.8746 75.0181C80.1429 75.1292 80.3723 75.3175 80.5337 75.559C80.6951 75.8005 80.7813 76.0845 80.7813 76.375C80.7813 76.7645 80.6265 77.1381 80.3511 77.4136C80.0756 77.689 79.702 77.8437 79.3125 77.8437Z" fill="black"/>
<path d="M69.0313 67.5625C69.0313 66.691 68.7728 65.8391 68.2887 65.1145C67.8045 64.3899 67.1163 63.8252 66.3112 63.4917C65.5061 63.1582 64.6201 63.0709 63.7654 63.2409C62.9107 63.4109 62.1255 63.8306 61.5093 64.4468C60.8931 65.063 60.4734 65.8482 60.3034 66.7029C60.1334 67.5576 60.2207 68.4436 60.5542 69.2487C60.8877 70.0538 61.4524 70.742 62.177 71.2262C62.9016 71.7103 63.7535 71.9688 64.625 71.9688C65.7936 71.9688 66.9144 71.5045 67.7407 70.6782C68.567 69.8519 69.0313 68.7311 69.0313 67.5625ZM64.625 69.0313C64.3345 69.0313 64.0505 68.9451 63.809 68.7837C63.5675 68.6223 63.3792 68.393 63.2681 68.1246C63.1569 67.8562 63.1278 67.5609 63.1845 67.276C63.2411 66.9911 63.381 66.7293 63.5864 66.5239C63.7918 66.3185 64.0536 66.1786 64.3385 66.122C64.6234 66.0653 64.9187 66.0944 65.1871 66.2056C65.4555 66.3167 65.6848 66.505 65.8462 66.7465C66.0076 66.988 66.0938 67.272 66.0938 67.5625C66.0938 67.952 65.939 68.3256 65.6636 68.6011C65.3881 68.8765 65.0145 69.0313 64.625 69.0313Z" fill="black"/>
<path d="M64.7526 84.5778L76.5 58.1318L79.1848 59.3244L67.4375 85.7704L64.7526 84.5778Z" fill="black"/>
</svg>
