<svg width="38" height="33" viewBox="0 0 38 33" fill="none" xmlns="http://www.w3.org/2000/svg">
<path d="M31.6667 30.6108L35.5458 33L34.5167 28.4942L38 25.4796L33.4242 25.0787L31.6667 20.8455L29.8775 25.0787L25.3333 25.4796L28.785 28.4942L27.7083 33L31.6667 30.6108ZM22.2933 28.863H3.16667C2.33609 28.8335 1.54746 28.4861 0.959793 27.891C0.372127 27.2958 0.0291419 26.4971 0 25.656L0 3.207C0.0633333 1.45918 1.44083 0.0641399 3.16667 0H34.8333C36.5592 0.0641399 37.9367 1.45918 38 3.207V20.0918C37.0817 19.242 36.0208 18.6166 34.8333 18.1837V3.207H3.16667V25.656H22.2933C22.2142 26.1851 22.1667 26.7143 22.1667 27.2595C22.1667 27.8047 22.2142 28.3499 22.2933 28.863ZM22.1667 22.449H6.33333V20.4446C6.33333 17.7828 11.6217 16.4359 14.25 16.4359C16.8783 16.4359 22.1667 17.7828 22.1667 20.4446V22.449ZM22.1667 12.828H28.5V14.4315H22.1667V12.828ZM14.25 6.41399C12.0808 6.41399 10.2917 8.22595 10.2917 10.4227C10.2917 12.6195 12.0808 14.4315 14.25 14.4315C16.4192 14.4315 18.2083 12.6195 18.2083 10.4227C18.2083 8.22595 16.4192 6.41399 14.25 6.41399ZM22.1667 9.62099H31.6667V11.2245H22.1667V9.62099ZM22.1667 6.41399H31.6667V8.01749H22.1667V6.41399Z" fill="url(#paint0_linear)"/>
<defs>
<linearGradient id="paint0_linear" x1="-41.6324" y1="-58.75" x2="44.505" y2="64.5636" gradientUnits="userSpaceOnUse">
<stop offset="0.177083" stop-color="#32FFF3"/>
<stop offset="1" stop-color="#374CB8"/>
</linearGradient>
</defs>
</svg>
