<svg width="25" height="25" viewBox="0 0 25 25" fill="none" xmlns="http://www.w3.org/2000/svg">
<path fill-rule="evenodd" clip-rule="evenodd" d="M21.256 3.63356C20.1084 2.47835 18.7429 1.56235 17.2387 0.938641C15.7345 0.314929 14.1215 -0.0040989 12.4931 3.97564e-05C5.66487 3.97564e-05 0.10626 5.55727 0.1035 12.3882C0.1035 14.5714 0.673436 16.7021 1.75673 18.5817L0 25L6.56739 23.2764C8.384 24.2653 10.4192 24.7838 12.4876 24.7847H12.4931C19.3199 24.7847 24.8785 19.2275 24.8813 12.3965C24.886 10.7688 24.568 9.15629 23.9458 7.65219C23.3235 6.14809 22.4093 4.78223 21.256 3.63356ZM12.4931 22.694H12.4889C10.6446 22.6942 8.83421 22.198 7.24773 21.2575L6.87237 21.0339L2.97527 22.0565L4.0144 18.2574L3.77014 17.8682C2.73899 16.2266 2.19313 14.3268 2.19557 12.3882C2.19833 6.71095 6.81717 2.09211 12.4972 2.09211C13.85 2.0891 15.1899 2.35442 16.4394 2.8727C17.6889 3.39099 18.8232 4.15195 19.7767 5.11154C20.7353 6.06655 21.495 7.20208 22.0121 8.4525C22.5292 9.70291 22.7933 11.0434 22.7892 12.3965C22.7865 18.0738 18.1676 22.694 12.4931 22.694ZM18.1414 14.9812C17.8309 14.8253 16.3101 14.0774 16.0259 13.9739C15.743 13.8704 15.5373 13.8193 15.3303 14.1284C15.1233 14.4375 14.53 15.1344 14.3492 15.3414C14.1684 15.5484 13.9876 15.5733 13.6785 15.4187C13.3694 15.2641 12.3716 14.9371 11.189 13.8828C10.2685 13.0617 9.64753 12.0488 9.46675 11.7383C9.28598 11.4278 9.44743 11.2608 9.60337 11.1062C9.74275 10.9682 9.91249 10.7447 10.0671 10.5639C10.2216 10.3831 10.2727 10.2548 10.3762 10.0478C10.4797 9.84077 10.4286 9.65999 10.35 9.50543C10.2727 9.34949 9.65305 7.82598 9.39499 7.20637C9.14522 6.60607 8.88992 6.68611 8.69948 6.67783C8.50225 6.66976 8.30486 6.66608 8.10746 6.66679C7.95049 6.67079 7.79605 6.70717 7.6538 6.77367C7.51156 6.84016 7.38459 6.93532 7.28085 7.05319C6.99657 7.36368 6.19755 8.11164 6.19755 9.63515C6.19755 11.1587 7.30706 12.6311 7.46162 12.8381C7.61618 13.0451 9.64477 16.1708 12.7498 17.5122C13.4894 17.8309 14.0663 18.0214 14.5148 18.1649C15.2558 18.4009 15.9306 18.3664 16.4647 18.2877C17.0595 18.1994 18.296 17.5398 18.554 16.8166C18.8121 16.0935 18.8121 15.4739 18.7348 15.3442C18.6575 15.2145 18.4491 15.1358 18.1414 14.9812Z" fill="url(#paint0_linear)"/>
<defs>
<linearGradient id="paint0_linear" x1="-27.2597" y1="-44.5076" x2="40.6946" y2="39.5739" gradientUnits="userSpaceOnUse">
<stop offset="0.177083" stop-color="#32FFF3"/>
<stop offset="1" stop-color="#374CB8"/>
</linearGradient>
</defs>
</svg>
