<svg width="71" height="71" viewBox="0 0 71 71" fill="none" xmlns="http://www.w3.org/2000/svg">
<path fill-rule="evenodd" clip-rule="evenodd" d="M41.4167 17.75V11.8333H29.5833V17.75H41.4167ZM11.8333 23.6667V56.2083H59.1667V23.6667H11.8333ZM59.1667 17.75C62.4504 17.75 65.0833 20.3829 65.0833 23.6667V56.2083C65.0833 59.4921 62.4504 62.125 59.1667 62.125H11.8333C8.54959 62.125 5.91667 59.4921 5.91667 56.2083L5.94626 23.6667C5.94626 20.3829 8.54959 17.75 11.8333 17.75H23.6667V11.8333C23.6667 8.54959 26.2996 5.91667 29.5833 5.91667H41.4167C44.7004 5.91667 47.3333 8.54959 47.3333 11.8333V17.75H59.1667Z" fill="black"/>
</svg>
