<svg width="41" height="41" viewBox="0 0 41 41" fill="none" xmlns="http://www.w3.org/2000/svg">
<g clip-path="url(#clip0)">
<path d="M37.8414 25.7559C37.2774 25.7559 36.8203 26.213 36.8203 26.777V35.8434C36.8183 37.5346 35.4482 38.9051 33.7569 38.9067H5.10556C3.41434 38.9051 2.04422 37.5346 2.04222 35.8434V9.23422C2.04422 7.54341 3.41434 6.17288 5.10556 6.17089H14.1719C14.7359 6.17089 15.193 5.71378 15.193 5.14977C15.193 4.58617 14.7359 4.12866 14.1719 4.12866H5.10556C2.28713 4.13185 0.00319098 6.41579 0 9.23422V35.8438C0.00319098 38.6622 2.28713 40.9461 5.10556 40.9493H33.7569C36.5754 40.9461 38.8593 38.6622 38.8625 35.8438V26.777C38.8625 26.213 38.4054 25.7559 37.8414 25.7559V25.7559Z" fill="black"/>
<path d="M38.4585 1.50117C36.664 -0.293358 33.7546 -0.293358 31.9601 1.50117L13.7428 19.7185C13.618 19.8433 13.5278 19.9981 13.4807 20.168L11.0851 28.8167C10.9866 29.1713 11.0867 29.551 11.3468 29.8115C11.6072 30.0716 11.987 30.1717 12.3416 30.0736L20.9903 27.6775C21.1602 27.6305 21.315 27.5403 21.4398 27.4155L39.6567 9.1978C41.4485 7.40208 41.4485 4.4951 39.6567 2.69938L38.4585 1.50117ZM15.9677 20.3822L30.8771 5.47234L35.6856 10.2807L20.7757 25.1906L15.9677 20.3822ZM15.0072 22.3095L18.8488 26.1515L13.535 27.6237L15.0072 22.3095ZM38.2128 7.75389L37.1299 8.83682L32.3211 4.02802L33.4044 2.94508C34.4012 1.9483 36.0174 1.9483 37.0142 2.94508L38.2128 4.1433C39.208 5.14127 39.208 6.75631 38.2128 7.75389V7.75389Z" fill="black"/>
</g>
<defs>
<clipPath id="clip0">
<rect width="41" height="41" fill="white"/>
</clipPath>
</defs>
</svg>
